<?xml version="1.0" encoding="UTF-8" standalone="no"?>
<!-- Generator: Adobe Illustrator 24.1.1, SVG Export Plug-In . SVG Version: 6.00 Build 0)  -->

<svg
   version="1.1"
   x="0px"
   y="0px"
   viewBox="0 0 50 37.947289"
   xml:space="preserve"
   id="svg333"
   sodipodi:docname="Shitty_Add-On_EC__ContornoS.svg"
   width="50mm"
   height="37.947289mm"
   inkscape:version="1.3 (1:1.3+202307231459+0e150ed6c4)"
   xmlns:inkscape="http://www.inkscape.org/namespaces/inkscape"
   xmlns:sodipodi="http://sodipodi.sourceforge.net/DTD/sodipodi-0.dtd"
   xmlns="http://www.w3.org/2000/svg"
   xmlns:svg="http://www.w3.org/2000/svg"><defs
   id="defs337" /><sodipodi:namedview
   id="namedview335"
   pagecolor="#ffffff"
   bordercolor="#000000"
   borderopacity="0.25"
   inkscape:showpageshadow="2"
   inkscape:pageopacity="0.0"
   inkscape:pagecheckerboard="0"
   inkscape:deskcolor="#d1d1d1"
   showgrid="false"
   inkscape:zoom="5.5848852"
   inkscape:cx="94.540887"
   inkscape:cy="71.711411"
   inkscape:window-width="1920"
   inkscape:window-height="1043"
   inkscape:window-x="0"
   inkscape:window-y="0"
   inkscape:window-maximized="1"
   inkscape:current-layer="g636"
   inkscape:document-units="mm" />&#10;<style
   type="text/css"
   id="style174">&#10;	.st0{fill:none;stroke:#0C593F;stroke-miterlimit:10;}&#10;	.st1{fill:#00865E;}&#10;	.st2{fill:#222221;}&#10;	.st3{fill:#0C593F;}&#10;	.st4{fill:#EAEA8B;}&#10;</style>&#10;&#10;&#10;&#10;&#10;&#10;&#10;&#10;&#10;<g
   inkscape:label="[fixed] BG"
   inkscape:groupmode="layer"
   sodipodi:insensitive="true"
   id="g624"
   style="display:none"
   transform="translate(-6.2961123,-38.999976)"><rect
     x="0"
     y="0"
     width="100"
     height="100"
     style="fill:#ffffff;fill-opacity:1;stroke:none"
     id="rect622" /></g><g
   inkscape:label="Edge.Cuts"
   inkscape:groupmode="layer"
   id="g626"
   transform="translate(-6.29611,-39)"
   style="display:inline"><g
     id="Capa_1"
     transform="matrix(0.18456841,0,0,0.18456841,5.133545,31.801832)"
     style="display:inline">&#10;	<path
   class="st0"
   d="m 274.8,142.5 -0.369,-0.475 -0.393,-0.448 -0.417,-0.421 -0.438,-0.393 -0.459,-0.366 -0.478,-0.337 -0.496,-0.307 -0.512,-0.278 -0.528,-0.247 -0.542,-0.216 -0.554,-0.185 -0.566,-0.152 -0.575,-0.119 -0.584,-0.086 -0.592,-0.053 -0.597,-0.017 -20.425,0.038 -14.506,0.004 -5.111,-0.013 -2.458,-0.029 0.141,-0.525 0.121,-0.527 0.104,-0.528 0.084,-0.533 0.066,-0.536 0.046,-0.543 0.029,-0.55 0.009,-0.558 -0.028,-0.932 -0.081,-0.921 -0.134,-0.907 -0.182,-0.89 -0.229,-0.871 -0.274,-0.851 -0.316,-0.827 -0.356,-0.801 0.53,-0.556 0.5,-0.582 0.471,-0.605 0.441,-0.627 0.41,-0.65 0.378,-0.67 0.345,-0.689 0.312,-0.709 0.279,-0.725 0.243,-0.743 0.208,-0.758 0.172,-0.772 0.135,-0.786 0.097,-0.798 0.059,-0.81 0.02,-0.82 -0.021,-0.82 -0.062,-0.81 -0.102,-0.798 -0.14,-0.786 -0.178,-0.772 -0.214,-0.758 -0.25,-0.743 -0.283,-0.726 -0.316,-0.708 -0.348,-0.689 -0.378,-0.67 -0.408,-0.65 -0.436,-0.627 -0.462,-0.605 -0.489,-0.582 -0.513,-0.556 0.356,-0.801 0.316,-0.827 0.274,-0.851 0.229,-0.871 0.182,-0.89 0.134,-0.9069 0.081,-0.9207 0.028,-0.9324 -0.021,-0.8292 -0.062,-0.8183 -0.102,-0.8063 -0.142,-0.7933 -0.179,-0.7793 -0.217,-0.7643 -0.253,-0.7483 -0.288,-0.7313 -0.322,-0.7133 -0.356,-0.6943 -0.387,-0.6742 -0.418,-0.6532 -0.449,-0.6311 -0.478,-0.6081 -0.506,-0.584 -0.533,-0.559 -0.558,-0.5329 -0.584,-0.5058 -0.609,-0.4777 -0.631,-0.4486 -0.653,-0.4186 -0.674,-0.3874 -0.694,-0.3553 -0.714,-0.3221 -0.731,-0.2881 -0.748,-0.2529 -0.765,-0.2167 -0.779,-0.1796 -0.793,-0.1415 -0.807,-0.1023 -0.818,-0.0621 -0.829,-0.0209 -0.784,0.0186 -0.776,0.0554 -0.766,0.0915 -0.757,0.1267 -0.745,0.1613 -0.734,0.1951 -0.72,0.2283 -0.706,0.2606 -0.69,0.2923 -0.675,0.3231 -0.657,0.3534 -0.638,0.3828 -0.62,0.4115 -0.599,0.4394 -0.578,0.4668 -0.555,0.4932 -0.1,-0.1 0.345,-1.2773 0.321,-1.2821 0.298,-1.2867 0.275,-1.2914 0.252,-1.2961 0.23,-1.3008 0.207,-1.3054 0.185,-1.3102 0.162,-1.3148 0.14,-1.3196 0.118,-1.3242 0.097,-1.3289 0.074,-1.3336 0.054,-1.3383 0.031,-1.3429 0.011,-1.3477 -0.014,-1.5791 -0.044,-1.585 -0.074,-1.5873 -0.106,-1.5861 -0.138,-1.5814 -0.172,-1.5733 -0.208,-1.5615 L 199.4,52 l -0.118,-0.6693 -0.147,-0.6576 -0.176,-0.6452 -0.203,-0.6322 -0.23,-0.6186 -0.256,-0.6043 -0.282,-0.5895 -0.307,-0.5739 -0.33,-0.5579 -0.354,-0.5411 -0.377,-0.5238 -0.398,-0.5057 -0.42,-0.4872 -0.439,-0.468 -0.46,-0.4481 -0.478,-0.4276 -0.496,-0.4065 -0.514,-0.3849 -0.531,-0.3624 -0.546,-0.3396 -0.562,-0.3159 -0.577,-0.2917 -0.59,-0.2669 -0.603,-0.2415 -0.615,-0.2153 -0.627,-0.1887 -0.638,-0.1614 -0.648,-0.1334 -0.657,-0.1049 -0.666,-0.0756 -0.674,-0.0459 -0.681,-0.0154 -0.9,0.0203 -0.9,0.0672 -0.45,0.0541 -0.45,0.0693 -0.45,0.0858 -0.45,0.1033 -0.944,0.2452 -0.939,0.2668 -0.933,0.2883 -0.928,0.3097 -0.922,0.331 -0.916,0.3522 -0.91,0.3733 -0.903,0.3944 -0.898,0.4154 -0.891,0.4362 -0.884,0.4569 -0.878,0.4777 -0.871,0.4982 -0.864,0.5187 -0.857,0.5391 -0.85,0.5594 -0.842,0.5796 -0.835,0.5998 -0.827,0.6197 -0.82,0.6398 -0.812,0.6595 -0.804,0.6794 -0.795,0.6989 -0.788,0.7186 -0.779,0.7381 -0.771,0.7574 -0.762,0.7767 -0.753,0.796 -0.745,0.815 -0.735,0.8341 -0.727,0.853 L 154.3,58 l -1.546,-0.2439 -1.563,-0.2077 -1.577,-0.1724 -1.589,-0.1385 -1.598,-0.1057 -1.605,-0.074 -1.61,-0.0435 L 141.6,57 l -1.645,0.0184 -1.636,0.0535 -1.627,0.0863 -1.617,0.1168 -1.608,0.1449 -1.598,0.1707 -1.589,0.1942 -1.58,0.2152 -0.699,-0.8628 -0.708,-0.8445 -0.718,-0.8261 -0.728,-0.8076 -0.737,-0.789 -0.747,-0.7703 -0.755,-0.7515 -0.764,-0.7326 -0.773,-0.7135 -0.782,-0.6943 -0.79,-0.6751 -0.799,-0.6557 -0.807,-0.6363 -0.815,-0.6166 -0.822,-0.597 -0.831,-0.5771 -0.838,-0.5572 -0.846,-0.5372 -0.853,-0.517 -0.86,-0.4968 -0.867,-0.4764 -0.874,-0.456 -0.881,-0.4353 -0.887,-0.4147 -0.894,-0.3939 -0.9,-0.373 -0.906,-0.3519 -0.913,-0.3308 -0.918,-0.3096 -0.924,-0.2882 -0.929,-0.2668 L 102.2,40 101.298,39.7953 100.388,39.6375 99.9256,39.5791 99.4578,39.5359 98.983,39.5092 98.5,39.5 l -0.681,0.0151 -0.6739,0.0451 -0.6659,0.0744 -0.6573,0.1031 -0.6479,0.1313 -0.6379,0.159 -0.6269,0.186 -0.6154,0.2126 -0.6032,0.2384 -0.59,0.2638 -0.5763,0.2886 -0.5618,0.3129 -0.5466,0.3365 -0.5305,0.3595 -0.5139,0.3821 -0.4965,0.4041 -0.4783,0.4254 -0.4594,0.4463 -0.4398,0.4665 -0.4194,0.4862 -0.3983,0.5053 -0.3765,0.5239 -0.3539,0.5418 -0.3306,0.5593 -0.3067,0.5761 -0.2818,0.5924 -0.2564,0.6081 -0.2301,0.6232 -0.2032,0.6378 -0.1756,0.6518 -0.1471,0.6653 L 83.9,52 l -0.2439,1.5422 -0.2077,1.5516 -0.1724,1.5609 -0.1385,1.5703 -0.1057,1.5797 -0.074,1.5891 -0.0435,1.5984 L 82.9,64.6 l 0.0106,1.3477 0.0318,1.3429 0.0532,1.3383 0.0747,1.3336 0.0964,1.3289 0.1183,1.3242 0.1402,1.3196 0.1623,1.3148 0.1846,1.3102 0.207,1.3054 0.2296,1.3008 0.2522,1.2961 0.2752,1.2914 0.2981,1.2867 0.3212,1.2821 L 85.7,85.6 85.6,85.7 85.0447,85.2068 84.467,84.74 83.8679,84.3006 83.2484,83.8891 82.6096,83.5063 81.9525,83.1529 81.2781,82.8298 80.5875,82.5375 79.8816,82.2769 79.1615,82.0486 78.4282,81.8535 77.6828,81.6922 76.9262,81.5655 76.1596,81.474 75.3838,81.4186 74.6,81.4 l -0.8292,0.0209 -0.8183,0.0621 -0.8063,0.1023 -0.7933,0.1415 -0.7793,0.1796 -0.7643,0.2167 -0.7483,0.2529 -0.7313,0.2881 -0.7133,0.3221 -0.6943,0.3553 -0.6742,0.3874 -0.6532,0.4186 -0.6311,0.4486 -0.6081,0.4777 -0.584,0.5058 -0.559,0.5329 -0.5329,0.559 -0.5058,0.584 -0.4777,0.6081 -0.4486,0.6311 -0.4186,0.6532 -0.3874,0.6742 -0.3553,0.6943 -0.3221,0.7133 -0.2881,0.7313 -0.2529,0.7483 -0.2167,0.7643 -0.1796,0.7793 -0.1415,0.7933 -0.1023,0.8063 -0.0621,0.8183 L 58.5,97.5 l 0.0277,0.9324 0.0817,0.9207 0.1332,0.9069 0.1824,0.89 0.2293,0.871 0.2738,0.851 0.316,0.827 0.3559,0.801 -0.5296,0.556 -0.5007,0.582 -0.4711,0.605 -0.4408,0.627 -0.4097,0.65 -0.378,0.67 -0.3454,0.689 -0.3122,0.709 -0.2782,0.725 -0.2435,0.743 -0.208,0.758 -0.1719,0.772 -0.1349,0.786 -0.0973,0.798 -0.0589,0.81 -0.0198,0.82 0.0209,0.82 0.0619,0.81 0.1018,0.798 0.1404,0.786 0.1779,0.772 0.2143,0.758 0.2494,0.743 0.2834,0.726 0.3162,0.708 0.3479,0.689 0.3783,0.67 0.4076,0.65 0.4357,0.627 0.4627,0.605 0.4885,0.582 0.5131,0.556 -0.3559,0.801 -0.316,0.827 -0.2738,0.851 -0.2293,0.871 -0.1824,0.89 -0.1332,0.907 -0.0817,0.921 -0.0277,0.932 0.0094,0.562 0.0281,0.56 0.0469,0.555 0.0656,0.548 0.0844,0.539 0.1031,0.527 0.1219,0.513 L 59.1,138.4 H 20.9 l -0.6337,0.02 -0.6253,0.059 -0.6153,0.096 -0.6038,0.134 -0.591,0.171 -0.5766,0.206 -0.5608,0.24 -0.5435,0.274 -0.5248,0.307 -0.5045,0.339 -0.4829,0.37 -0.4597,0.4 -0.4351,0.429 -0.409,0.458 -0.3815,0.485 -0.3525,0.512 -0.3375,0.533 -0.3,0.548 -0.2625,0.561 -0.225,0.572 -0.1875,0.583 -0.15,0.59 -0.1125,0.598 -0.075,0.603 -0.0375,0.606 v 0.608 l 0.0375,0.608 0.075,0.607 0.1125,0.604 0.15,0.6 0.1875,0.593 0.225,0.586 0.1531,0.337 0.1719,0.413 0.2094,0.488 0.2656,0.562 -5.2,16 -0.16995,0.567 -0.13493,0.574 -0.10008,0.581 -0.06535,0.584 -0.03079,0.587 0.00364,0.587 0.03791,0.587 0.07205,0.583 0.10603,0.579 0.13987,0.572 0.17356,0.564 0.2071,0.554 0.24051,0.542 0.27375,0.529 0.30686,0.513 0.33982,0.497 0.36892,0.475 0.39338,0.448 0.41653,0.421 0.43837,0.394 0.4588,0.365 0.4781,0.337 0.4959,0.307 0.5125,0.278 0.5277,0.247 0.5416,0.216 0.5543,0.185 0.5655,0.152 0.5754,0.119 0.5841,0.086 0.5915,0.053 0.5974,0.017 h 51.7 l -0.9641,2.897 -2.0234,6.178 -2.9125,8.925 -0.1606,0.508 -0.1442,0.51 -0.128,0.512 -0.1119,0.515 -0.0959,0.516 -0.0799,0.517 -0.064,0.519 -0.0483,0.519 -0.0326,0.519 -0.017,0.519 -0.0016,0.519 0.0139,0.518 0.0292,0.517 0.0443,0.516 0.0596,0.514 0.0745,0.512 0.0895,0.51 0.1043,0.507 0.1191,0.504 0.1338,0.5 0.1483,0.498 0.1628,0.493 0.1772,0.488 0.1916,0.484 0.2057,0.479 0.2198,0.474 0.2339,0.468 0.2478,0.463 0.2616,0.455 0.2754,0.45 0.2891,0.442 0.3026,0.435 0.3155,0.426 0.3274,0.414 0.3391,0.403 0.3504,0.391 0.3614,0.38 0.3721,0.368 0.3823,0.356 0.3924,0.343 0.4021,0.332 0.4114,0.318 0.4203,0.307 0.4291,0.293 0.4374,0.281 0.4455,0.267 0.4531,0.255 0.4605,0.241 0.4675,0.228 0.4742,0.214 0.4806,0.2 0.4867,0.186 0.4923,0.172 0.4978,0.158 0.5028,0.144 0.5075,0.129 0.5119,0.115 0.516,0.1 0.5197,0.084 0.5231,0.07 0.5262,0.054 0.5289,0.04 0.5314,0.023 0.5334,0.008 h 44.3 v 15.5 l 0.022,0.426 0.064,0.415 0.105,0.401 0.142,0.385 0.178,0.366 0.211,0.347 0.243,0.323 0.272,0.3 0.3,0.272 0.323,0.243 0.347,0.211 0.366,0.178 0.385,0.142 0.401,0.105 0.415,0.064 0.426,0.022 h 27.5 l 0.426,-0.022 0.415,-0.064 0.401,-0.105 0.385,-0.142 0.366,-0.178 0.347,-0.211 0.323,-0.243 0.299,-0.272 0.273,-0.3 0.243,-0.323 0.211,-0.347 0.178,-0.366 0.142,-0.385 0.105,-0.401 0.064,-0.415 0.022,-0.426 v -15.5 h 40.4 l 0.71,-0.014 0.704,-0.042 0.697,-0.069 0.69,-0.095 0.682,-0.122 0.674,-0.148 0.665,-0.174 0.655,-0.198 0.644,-0.224 0.634,-0.247 0.621,-0.271 0.61,-0.294 0.596,-0.318 0.583,-0.339 0.569,-0.362 0.553,-0.383 0.539,-0.404 0.522,-0.425 0.505,-0.445 0.488,-0.465 0.47,-0.484 0.45,-0.503 0.432,-0.522 0.412,-0.539 0.391,-0.558 0.369,-0.574 0.348,-0.591 0.325,-0.607 0.302,-0.623 0.278,-0.639 0.254,-0.653 0.228,-0.668 0.273,-0.942 0.22,-0.949 0.166,-0.954 0.113,-0.958 0.06,-0.959 0.008,-0.958 -0.044,-0.955 -0.096,-0.95 -0.148,-0.943 -0.198,-0.934 -0.25,-0.923 -0.301,-0.909 -0.351,-0.895 -0.401,-0.877 -0.451,-0.858 -0.5,-0.836 0.35,-0.233 0.339,-0.249 0.326,-0.264 0.313,-0.279 0.301,-0.293 0.287,-0.306 0.274,-0.319 0.26,-0.332 0.246,-0.343 0.232,-0.355 0.217,-0.365 0.202,-0.374 0.187,-0.385 0.171,-0.393 0.156,-0.401 0.139,-0.409 1.362,-4.35 0.958,-3.075 0.48,-1.575 h 42 l 0.597,-0.017 0.592,-0.053 0.584,-0.086 0.575,-0.119 0.566,-0.152 0.554,-0.185 0.542,-0.216 0.527,-0.247 0.513,-0.278 0.496,-0.307 0.478,-0.337 0.459,-0.365 0.438,-0.394 0.417,-0.421 0.393,-0.448 0.369,-0.475 0.34,-0.495 0.307,-0.511 0.273,-0.524 0.241,-0.537 0.207,-0.548 0.174,-0.558 0.139,-0.566 0.107,-0.573 0.072,-0.58 0.037,-0.584 0.004,-0.587 -0.031,-0.589 -0.065,-0.589 -0.1,-0.589 -0.135,-0.587 -0.17,-0.583 -1.9,-5.8 -0.167,-0.45 -0.195,-0.45 -0.438,-0.9 0.333,-0.232 0.323,-0.246 0.312,-0.259 0.302,-0.272 0.291,-0.286 0.279,-0.298 0.268,-0.31 0.255,-0.322 0.241,-0.334 0.229,-0.345 0.215,-0.357 0.2,-0.367 0.186,-0.378 0.171,-0.388 0.156,-0.398 0.139,-0.408 1.9,-5.8 0.17,-0.601 0.135,-0.602 0.1,-0.602 0.065,-0.601 0.031,-0.599 -0.004,-0.595 -0.037,-0.59 -0.073,-0.585 -0.106,-0.578 -0.139,-0.569 -0.174,-0.56 -0.207,-0.549 -0.241,-0.538 -0.273,-0.525 -0.307,-0.51 -0.34,-0.496 v 0"
   id="path176" />&#10;</g></g><g
   inkscape:label="B.Cu"
   inkscape:groupmode="layer"
   id="g628"
   transform="translate(-6.2961123,-38.999976)"
   style="display:inline" /><g
   inkscape:label="B.Mask"
   inkscape:groupmode="layer"
   id="g630"
   transform="translate(-6.2961123,-38.999976)"
   style="display:inline"><g
     id="g726"
     transform="matrix(0.18456841,0,0,0.18456841,5.133545,31.801832)"
     style="display:inline">&#10;	<g
   id="g724">&#10;		<g
   id="g718">&#10;			<path
   class="st4"
   d="m 153.9,115.8 c -1,0 -1.9,-0.1 -2.9,-0.2 -0.1,-0.9 -0.2,-1.9 -0.2,-2.9 0,-11.8 9.5,-21.3 21.3,-21.3 1,0 1.9,0.1 2.8,0.2 0.1,0.9 0.2,1.9 0.2,2.9 0.1,11.7 -9.4,21.3 -21.2,21.3 z"
   id="path716" />&#10;		</g>&#10;		<g
   id="g722">&#10;			<path
   class="st4"
   d="m 132.4,115.6 c -0.9,0.1 -1.9,0.2 -2.8,0.2 -11.8,0 -21.3,-9.5 -21.3,-21.3 0,-1 0.1,-1.9 0.2,-2.9 0.9,-0.1 1.9,-0.2 2.8,-0.2 11.8,0 21.3,9.5 21.3,21.3 0,1 -0.1,1.9 -0.2,2.9 z"
   id="path720" />&#10;		</g>&#10;	</g>&#10;</g><g
     id="g780"
     transform="matrix(0.18456841,0,0,0.18456841,5.133545,31.801832)"
     style="display:inline">&#10;	<g
   id="g778">&#10;		<g
   id="g776">&#10;			<g
   id="g774">&#10;				<g
   id="g752">&#10;					<circle
   class="st4"
   cx="211.8"
   cy="115.8"
   r="2.9000001"
   id="circle750" />&#10;				</g>&#10;				<g
   id="g756">&#10;					<circle
   class="st4"
   cx="208.7"
   cy="97.5"
   r="2.9000001"
   id="circle754" />&#10;				</g>&#10;				<g
   id="g760">&#10;					<circle
   class="st4"
   cx="74.699997"
   cy="97.5"
   r="2.9000001"
   id="circle758" />&#10;				</g>&#10;				<g
   id="g764">&#10;					<path
   class="st4"
   d="m 74.6,115.8 c 0,-1.6 -1.3,-2.9 -2.9,-2.9 -1.6,0 -2.9,1.3 -2.9,2.9 0,1.6 1.3,2.9 2.9,2.9 1.6,-0.1 2.9,-1.4 2.9,-2.9 z"
   id="path762" />&#10;				</g>&#10;				<g
   id="g768">&#10;					<circle
   class="st4"
   cx="74.699997"
   cy="134"
   r="2.9000001"
   id="circle766" />&#10;				</g>&#10;				<g
   id="g772">&#10;					<circle
   class="st4"
   cx="208.7"
   cy="134"
   r="2.9000001"
   id="circle770" />&#10;				</g>&#10;			</g>&#10;		</g>&#10;	</g>&#10;</g></g><g
   inkscape:label="B.SilkS"
   inkscape:groupmode="layer"
   id="g632"
   transform="translate(-6.2961123,-38.999976)"
   style="display:inline" /><g
   inkscape:label="F.Cu"
   inkscape:groupmode="layer"
   id="g634"
   transform="translate(-6.2961123,-38.999976)"
   style="display:inline"><g
     id="Capa_2"
     transform="matrix(0.18456841,0,0,0.18456841,5.133545,31.801832)"
     style="display:inline">&#10;	<g
   id="Capa_2_1_">&#10;		<g
   id="g181">&#10;			<path
   class="st1"
   d="m 65.1,115.8 c 0,-3.6 3,-6.6 6.6,-6.6 2.6,0 5,1.6 6,3.9 h 14.7 c -1,-2.8 -1.6,-5.6 -1.7,-8.5 l -10.9,-3 c -1.2,1.5 -3.1,2.5 -5.1,2.5 -3.6,0 -6.6,-3 -6.6,-6.6 0,-3.6 3,-6.6 6.6,-6.6 3.3,0 6,2.4 6.5,5.6 l 9.8,2.7 c 0.7,-4.3 2.4,-8.4 5.1,-12.3 -2.4,-7.1 -3.6,-14.6 -3.6,-22.3 0,-3.7 0.3,-7.5 0.9,-11.1 0.2,-1.5 1,-2.7 2.3,-3.6 1.3,-0.8 2.8,-1.1 4.3,-0.7 9.5,2.4 18,9.1 24.8,19.4 5.5,-1.4 11.2,-2.1 17,-2.1 5.7,0 11.3,0.7 16.7,2 6.8,-10.3 15.5,-17 25,-19.4 1.5,-0.4 3,-0.1 4.3,0.7 1.3,0.8 2.1,2.1 2.3,3.6 0.6,3.6 0.9,7.4 0.9,11.1 0,7.7 -1.2,15.2 -3.6,22.3 2.7,3.9 4.4,8 5.1,12.3 l 9.8,-2.7 c 0.5,-3.2 3.2,-5.6 6.5,-5.6 3.6,0 6.6,3 6.6,6.6 0,3.6 -3,6.6 -6.6,6.6 -2,0 -3.9,-0.9 -5.1,-2.5 l -10.8,3 c -0.1,2.9 -0.7,5.8 -1.7,8.5 h 14.7 c 1,-2.4 3.4,-3.9 6,-3.9 3.6,0 6.6,3 6.6,6.6 0,3.6 -3,6.6 -6.6,6.6 -2.6,0 -5,-1.6 -6,-3.9 h -17.2 c -1.3,2.1 -2.9,4.2 -4.7,6.1 l 19.7,5.4 c 1.2,-1.5 3.1,-2.5 5.1,-2.5 3.6,0 6.6,3 6.6,6.6 0,3.6 -3,6.6 -6.6,6.6 -3.3,0 -6,-2.4 -6.5,-5.6 l -23,-6.3 c -9.6,7.6 -23.3,11.9 -37.5,11.9 -14.2,0 -27.8,-4.3 -37.5,-11.9 l -23,6.3 c -0.5,3.2 -3.2,5.6 -6.5,5.6 -3.6,0 -6.6,-3 -6.6,-6.6 0,-3.6 3,-6.6 6.6,-6.6 2,0 3.9,0.9 5.1,2.5 l 19.7,-5.4 c -1.8,-1.9 -3.4,-4 -4.7,-6.1 H 77.7 c -1,2.4 -3.4,3.9 -6,3.9 -3.6,0 -6.6,-2.9 -6.6,-6.5 z"
   id="path179" />&#10;		</g>&#10;	</g>&#10;</g><g
     id="Capa_6_1_"
     transform="matrix(0.18456841,0,0,0.18456841,5.133545,31.801832)"
     style="display:inline">&#10;	<g
   id="Capa_6">&#10;		<path
   class="st3"
   d="m 205.1,119.4 c 1.3,2.4 3.9,3.9 6.6,3.9 4.2,0 7.6,-3.4 7.6,-7.6 0,-4.2 -3.4,-7.6 -7.6,-7.6 -2.8,0 -5.3,1.5 -6.6,3.9 h -12.6 c 0.7,-2.2 1.1,-4.5 1.3,-6.8 l 9.5,-2.6 c 1.4,1.5 3.4,2.3 5.5,2.3 4.2,0 7.6,-3.4 7.6,-7.6 0,-4.2 -3.4,-7.6 -7.6,-7.6 -3.6,0 -6.6,2.4 -7.4,5.8 l -8.1,2.2 c -0.8,-3.9 -2.4,-7.7 -4.8,-11.2 2.3,-7.1 3.5,-14.5 3.5,-22.1 0,-3.8 -0.3,-7.6 -0.9,-11.3 -0.3,-1.8 -1.3,-3.3 -2.7,-4.2 -1,-0.7 -2.3,-1.1 -3.5,-1.1 -0.5,0 -1,0.1 -1.5,0.2 -9.6,2.4 -18.3,9 -25.2,19.2 -5.3,-1.3 -10.8,-1.9 -16.3,-1.9 -5.7,0 -11.2,0.7 -16.6,2 -6.8,-10.2 -15.4,-16.8 -25,-19.2 -0.5,-0.1 -1,-0.2 -1.6,-0.2 -1.3,0 -2.5,0.4 -3.5,1 -1.5,1 -2.5,2.5 -2.7,4.3 -0.6,3.7 -0.9,7.4 -0.9,11.2 0,7.7 1.2,15.1 3.5,22.1 -2.4,3.5 -4,7.3 -4.8,11.2 l -8.1,-2.2 c -0.8,-3.4 -3.8,-5.8 -7.4,-5.8 -4.2,0 -7.6,3.4 -7.6,7.6 0,4.2 3.4,7.6 7.6,7.6 2.1,0 4,-0.8 5.4,-2.3 l 9.6,2.6 c 0.2,2.3 0.6,4.6 1.3,6.8 H 78.3 c -1.3,-2.4 -3.9,-3.9 -6.7,-3.9 -4.2,0 -7.6,3.4 -7.6,7.6 0,4.2 3.4,7.6 7.6,7.6 2.8,0 5.3,-1.5 6.7,-3.9 h 16 c 1,1.6 2.1,3.1 3.4,4.6 l -17.6,4.8 c -1.4,-1.5 -3.4,-2.3 -5.4,-2.3 -4.2,0 -7.6,3.4 -7.6,7.6 0,4.2 3.4,7.6 7.6,7.6 3.6,0 6.6,-2.4 7.4,-5.8 l 21.9,-6 c 9.8,7.5 23.5,11.8 37.7,11.8 14.2,0 27.9,-4.3 37.7,-11.8 l 21.9,6 c 0.8,3.4 3.8,5.8 7.4,5.8 4.2,0 7.6,-3.4 7.6,-7.6 0,-4.2 -3.4,-7.6 -7.6,-7.6 -2,0 -4,0.9 -5.4,2.3 L 185.7,124 c 1.3,-1.5 2.4,-3 3.4,-4.6 z m -21.2,5.1 19.7,5.4 c 1.2,-1.5 3.1,-2.5 5.1,-2.5 3.6,0 6.6,3 6.6,6.6 0,3.6 -3,6.6 -6.6,6.6 -3.3,0 -6,-2.4 -6.5,-5.6 l -23,-6.3 c -9.6,7.6 -23.3,11.9 -37.5,11.9 -14.2,0 -27.8,-4.3 -37.5,-11.9 l -23,6.3 c -0.5,3.2 -3.2,5.6 -6.5,5.6 -3.6,0 -6.6,-3 -6.6,-6.6 0,-3.6 2.9,-6.6 6.6,-6.6 2,0 3.9,0.9 5.1,2.5 l 19.7,-5.4 c -1.8,-1.9 -3.4,-4 -4.7,-6.1 H 77.7 c -1,2.4 -3.4,3.9 -6,3.9 -3.6,0 -6.6,-3 -6.6,-6.6 0,-3.6 2.9,-6.6 6.6,-6.6 2.6,0 5,1.6 6,3.9 h 14.7 c -1,-2.8 -1.6,-5.6 -1.7,-8.5 l -10.9,-3 c -1.2,1.5 -3.1,2.5 -5.1,2.5 -3.6,0 -6.6,-3 -6.6,-6.6 0,-3.6 2.9,-6.6 6.6,-6.6 3.3,0 6,2.4 6.5,5.6 l 9.8,2.7 c 0.7,-4.3 2.4,-8.5 5.1,-12.3 -2.4,-7.1 -3.6,-14.6 -3.6,-22.3 0,-3.7 0.3,-7.5 0.9,-11.1 0.2,-1.5 1.1,-2.7 2.3,-3.6 0.9,-0.6 1.9,-0.9 2.9,-0.9 0.4,0 0.9,0.1 1.3,0.2 9.5,2.4 18,9.1 24.8,19.4 5.4,-1.4 11.2,-2.1 17,-2.1 5.7,0 11.3,0.7 16.7,2 6.8,-10.3 15.5,-17 25,-19.4 0.4,-0.1 0.9,-0.2 1.3,-0.2 1.1,0 2.1,0.3 3,0.9 1.3,0.8 2.1,2.1 2.3,3.6 0.6,3.6 0.9,7.4 0.9,11.1 0,7.7 -1.2,15.2 -3.6,22.3 2.7,3.9 4.4,8 5.1,12.3 l 9.8,-2.7 c 0.5,-3.2 3.2,-5.6 6.5,-5.6 3.6,0 6.6,3 6.6,6.6 0,3.6 -3,6.6 -6.6,6.6 -2,0 -3.9,-0.9 -5.1,-2.5 l -10.8,3 c -0.1,2.9 -0.7,5.8 -1.7,8.5 h 14.7 c 1,-2.4 3.4,-3.9 6,-3.9 3.6,0 6.6,3 6.6,6.6 0,3.6 -3,6.6 -6.6,6.6 -2.6,0 -5,-1.6 -6,-3.9 h -17.2 c -1.4,2.2 -2.9,4.3 -4.7,6.2 z"
   id="path289" />&#10;	</g>&#10;</g></g><g
   inkscape:label="F.Mask"
   inkscape:groupmode="layer"
   id="g636"
   transform="translate(-6.2961123,-38.999976)"
   style="display:inline"><g
     id="g675"
     transform="matrix(0.18456841,0,0,0.18456841,5.133545,31.801832)"
     style="display:inline">&#10;	<g
   id="g673">&#10;		<g
   id="g667">&#10;			<path
   class="st4"
   d="m 153.9,115.8 c -1,0 -1.9,-0.1 -2.9,-0.2 -0.1,-0.9 -0.2,-1.9 -0.2,-2.9 0,-11.8 9.5,-21.3 21.3,-21.3 1,0 1.9,0.1 2.8,0.2 0.1,0.9 0.2,1.9 0.2,2.9 0.1,11.7 -9.4,21.3 -21.2,21.3 z"
   id="path665" />&#10;		</g>&#10;		<g
   id="g671">&#10;			<path
   class="st4"
   d="m 132.4,115.6 c -0.9,0.1 -1.9,0.2 -2.8,0.2 -11.8,0 -21.3,-9.5 -21.3,-21.3 0,-1 0.1,-1.9 0.2,-2.9 0.9,-0.1 1.9,-0.2 2.8,-0.2 11.8,0 21.3,9.5 21.3,21.3 0,1 -0.1,1.9 -0.2,2.9 z"
   id="path669" />&#10;		</g>&#10;	</g>&#10;</g><g
     id="g761"
     transform="matrix(0.18456841,0,0,0.18456841,5.133545,31.801832)"
     style="display:inline">&#10;	<g
   id="g759">&#10;		<g
   id="g757">&#10;			<g
   id="g755">&#10;				<g
   id="g733">&#10;					<circle
   class="st4"
   cx="211.8"
   cy="115.8"
   r="2.9000001"
   id="circle731" />&#10;				</g>&#10;				<g
   id="g737">&#10;					<circle
   class="st4"
   cx="208.7"
   cy="97.5"
   r="2.9000001"
   id="circle735" />&#10;				</g>&#10;				<g
   id="g741">&#10;					<circle
   class="st4"
   cx="74.699997"
   cy="97.5"
   r="2.9000001"
   id="circle739" />&#10;				</g>&#10;				<g
   id="g745">&#10;					<path
   class="st4"
   d="m 74.6,115.8 c 0,-1.6 -1.3,-2.9 -2.9,-2.9 -1.6,0 -2.9,1.3 -2.9,2.9 0,1.6 1.3,2.9 2.9,2.9 1.6,-0.1 2.9,-1.4 2.9,-2.9 z"
   id="path743" />&#10;				</g>&#10;				<g
   id="g749">&#10;					<circle
   class="st4"
   cx="74.699997"
   cy="134"
   r="2.9000001"
   id="circle747" />&#10;				</g>&#10;				<g
   id="g753">&#10;					<circle
   class="st4"
   cx="208.7"
   cy="134"
   r="2.9000001"
   id="circle751" />&#10;				</g>&#10;			</g>&#10;		</g>&#10;	</g>&#10;</g><g
     id="Capa_7_1_"
     transform="matrix(0.18456841,0,0,0.18456841,5.133545,31.801832)"
     style="display:inline">&#10;	<g
   id="Capa_7">&#10;		<g
   id="g295">&#10;			<path
   class="st4"
   d="m 153.9,115.8 c -1,0 -1.9,-0.1 -2.9,-0.2 -0.1,-0.9 -0.2,-1.9 -0.2,-2.9 0,-11.8 9.5,-21.3 21.3,-21.3 1,0 1.9,0.1 2.8,0.2 0.1,0.9 0.2,1.9 0.2,2.9 0.1,11.7 -9.4,21.3 -21.2,21.3 z"
   id="path293" />&#10;		</g>&#10;		<g
   id="g299">&#10;			<path
   class="st4"
   d="m 132.4,115.6 c -0.9,0.1 -1.9,0.2 -2.8,0.2 -11.8,0 -21.3,-9.5 -21.3,-21.3 0,-1 0.1,-1.9 0.2,-2.9 0.9,-0.1 1.9,-0.2 2.8,-0.2 11.8,0 21.3,9.5 21.3,21.3 0,1 -0.1,1.9 -0.2,2.9 z"
   id="path297" />&#10;		</g>&#10;	</g>&#10;</g><g
     id="g729"
     transform="matrix(0.18456841,0,0,0.18456841,5.133545,31.801832)"
     style="display:inline">&#10;	<g
   id="g727">&#10;		<g
   id="g725">&#10;			<g
   id="g723">&#10;				<g
   id="g701">&#10;					<circle
   class="st4"
   cx="211.8"
   cy="115.8"
   r="2.9000001"
   id="circle699" />&#10;				</g>&#10;				<g
   id="g705">&#10;					<circle
   class="st4"
   cx="208.7"
   cy="97.5"
   r="2.9000001"
   id="circle703" />&#10;				</g>&#10;				<g
   id="g709">&#10;					<circle
   class="st4"
   cx="74.699997"
   cy="97.5"
   r="2.9000001"
   id="circle707" />&#10;				</g>&#10;				<g
   id="g713">&#10;					<path
   class="st4"
   d="m 74.6,115.8 c 0,-1.6 -1.3,-2.9 -2.9,-2.9 -1.6,0 -2.9,1.3 -2.9,2.9 0,1.6 1.3,2.9 2.9,2.9 1.6,-0.1 2.9,-1.4 2.9,-2.9 z"
   id="path711" />&#10;				</g>&#10;				<g
   id="g717">&#10;					<circle
   class="st4"
   cx="74.699997"
   cy="134"
   r="2.9000001"
   id="circle715" />&#10;				</g>&#10;				<g
   id="g721">&#10;					<circle
   class="st4"
   cx="208.7"
   cy="134"
   r="2.9000001"
   id="circle719" />&#10;				</g>&#10;			</g>&#10;		</g>&#10;	</g>&#10;</g><g
     id="Capa_8_1_"
     transform="matrix(0.18456841,0,0,0.18456841,5.133545,31.801832)"
     style="display:inline">&#10;	<g
   id="Capa_8">&#10;		<g
   id="g329">&#10;			<g
   id="g327">&#10;				<g
   id="g305">&#10;					<circle
   class="st4"
   cx="211.8"
   cy="115.8"
   r="2.9000001"
   id="circle303" />&#10;				</g>&#10;				<g
   id="g309">&#10;					<circle
   class="st4"
   cx="208.7"
   cy="97.5"
   r="2.9000001"
   id="circle307" />&#10;				</g>&#10;				<g
   id="g313">&#10;					<circle
   class="st4"
   cx="74.699997"
   cy="97.5"
   r="2.9000001"
   id="circle311" />&#10;				</g>&#10;				<g
   id="g317">&#10;					<path
   class="st4"
   d="m 74.6,115.8 c 0,-1.6 -1.3,-2.9 -2.9,-2.9 -1.6,0 -2.9,1.3 -2.9,2.9 0,1.6 1.3,2.9 2.9,2.9 1.6,-0.1 2.9,-1.4 2.9,-2.9 z"
   id="path315" />&#10;				</g>&#10;				<g
   id="g321">&#10;					<circle
   class="st4"
   cx="74.699997"
   cy="134"
   r="2.9000001"
   id="circle319" />&#10;				</g>&#10;				<g
   id="g325">&#10;					<circle
   class="st4"
   cx="208.7"
   cy="134"
   r="2.9000001"
   id="circle323" />&#10;				</g>&#10;			</g>&#10;		</g>&#10;	</g>&#10;</g></g><g
   inkscape:label="F.SilkS"
   inkscape:groupmode="layer"
   id="g638"
   transform="translate(-6.2961123,-38.999976)"
   style="display:inline"><g
     id="Capa_5_1_"
     transform="matrix(0.18456841,0,0,0.18456841,5.133545,31.801832)"
     style="display:inline">&#10;	<g
   id="Capa_5">&#10;		<g
   id="g285">&#10;			<g
   id="g231">&#10;				<path
   class="st1"
   d="m 193.1,180.8 h 19.4 l -2.8,8.7 h -12 c -0.3,0 -0.6,0.2 -0.7,0.5 -0.1,0.3 -0.1,0.6 0.1,0.8 l 9.2,10.9 c 1.8,2.1 2.3,4.9 1.5,7.6 -1.1,3.3 -4.1,5.5 -7.6,5.5 h -23.8 l 2.8,-8.7 h 16.4 c 0.3,0 0.6,-0.2 0.7,-0.5 0.1,-0.3 0.1,-0.6 -0.1,-0.8 l -9.1,-10.9 c -1.8,-2.1 -2.3,-4.9 -1.5,-7.6 1,-3.3 4,-5.5 7.5,-5.5 z"
   id="path229" />&#10;			</g>&#10;			<g
   id="g235">&#10;				<polygon
   class="st1"
   points="180.7,189.5 170.4,189.5 162.2,214.7 151.3,214.7 159.5,189.5 149.2,189.5 152.1,180.8 183.5,180.8 "
   id="polygon233" />&#10;			</g>&#10;			<g
   id="g239">&#10;				<path
   class="st1"
   d="m 143.9,184.2 c -1.6,-2.2 -4,-3.4 -6.7,-3.4 h -26.1 l 0.3,0.7 c 0.8,1.7 1.8,3.9 3,6.6 l -8.7,26.6 h 10.9 l 4.3,-13.2 h 9.9 l -4.3,13.2 h 10.9 l 7.5,-23.1 c 1,-2.6 0.6,-5.3 -1,-7.4 z m -9.8,10.7 h -12 l 2.1,-6.5 h 12 z"
   id="path237" />&#10;			</g>&#10;			<g
   id="g243">&#10;				<path
   class="st1"
   d="M 87.2,189.5 81.8,206 h 15.5 l 2.8,8.7 H 79.4 c -2.7,0 -5.1,-1.2 -6.7,-3.4 -1.6,-2.2 -2,-4.8 -1.2,-7.4 l 5.7,-17.4 c 1.1,-3.4 4.3,-5.7 7.8,-5.7 h 19.2 l -2.8,8.7 z"
   id="path241" />&#10;			</g>&#10;			<g
   id="g247">&#10;				<path
   class="st1"
   d="m 254.5,154.6 -4,12.2 h 11.6 l 2.2,6.8 h -15.7 c -2,0 -3.9,-0.9 -5.1,-2.6 -1.2,-1.7 -1.5,-3.7 -0.9,-5.7 l 4.3,-13.1 c 0.8,-2.6 3.3,-4.4 6,-4.4 h 14.6 l -2.2,6.8 z"
   id="path245" />&#10;			</g>&#10;			<g
   id="g251">&#10;				<polygon
   class="st1"
   points="244.4,147.9 236,173.6 227.6,173.6 235.9,147.9 "
   id="polygon249" />&#10;			</g>&#10;			<g
   id="g255">&#10;				<path
   class="st1"
   d="m 229.6,156.1 -5.7,17.4 h -8.5 l 6.1,-18.9 h -7.2 l -6.2,18.9 h -8.5 l 6.5,-20.1 c -0.9,-2 -1.7,-3.6 -2.2,-4.9 l -0.3,-0.7 h 19.8 c 2,0 3.9,1 5.1,2.6 1.4,1.7 1.7,3.8 1.1,5.7 z"
   id="path253" />&#10;			</g>&#10;			<g
   id="g259">&#10;				<path
   class="st1"
   d="m 200.8,150.4 c -1.2,-1.7 -3.1,-2.6 -5.1,-2.6 h -10.8 c -2.8,0 -5.2,1.8 -6,4.4 l -4.3,13.1 c -0.6,1.9 -0.3,4 0.9,5.7 1.2,1.6 3.1,2.6 5.1,2.6 h 10.8 c 2.7,0 5.2,-1.8 6,-4.4 l 4.3,-13.1 c 0.6,-1.9 0.3,-4 -0.9,-5.7 z m -11,16.4 h -7.2 l 4,-12.2 h 7.2 z"
   id="path257" />&#10;			</g>&#10;			<g
   id="g263">&#10;				<path
   class="st1"
   d="m 155.7,173.6 h -8.5 l 5.1,-15.8 h 14.1 l 1,-3.1 h -13.7 l -3.1,-6.8 h 18.8 c 2,0 3.9,0.9 5.1,2.6 1.2,1.7 1.5,3.7 0.9,5.7 l -1.1,3.4 c -0.7,2.2 -2.7,3.8 -5,4.1 l 3.2,9.9 H 164 l -3.2,-9.9 h -2 z"
   id="path261" />&#10;			</g>&#10;			<g
   id="g267">&#10;				<polygon
   class="st1"
   points="123.9,173.6 130.1,154.6 122.4,154.6 124.6,147.8 148.4,147.8 146.2,154.6 138.5,154.6 132.4,173.6 "
   id="polygon265" />&#10;			</g>&#10;			<g
   id="g271">&#10;				<path
   class="st1"
   d="m 107.8,154.6 -4,12.2 h 11.6 l 2.2,6.8 h -15.7 c -2,0 -3.9,-0.9 -5.1,-2.6 -1.2,-1.6 -1.5,-3.7 -0.9,-5.7 l 4.3,-13.1 c 0.8,-2.6 3.3,-4.4 6,-4.4 h 14.6 l -2.2,6.8 z"
   id="path269" />&#10;			</g>&#10;			<g
   id="g275">&#10;				<path
   class="st1"
   d="M 93.2,173.6 H 67 l 6.6,-20.2 c -1.2,-2.5 -1.9,-4 -2.2,-4.8 l -0.3,-0.7 h 27.5 l -2.2,6.8 H 81.7 l -1,3.1 h 12.6 l -1.9,5.9 H 78.7 l -1,3.1 H 90 l 0.1,0.3 c 0.9,1.8 1.8,3.7 2.8,5.8 z"
   id="path273" />&#10;			</g>&#10;			<g
   id="g279">&#10;				<polygon
   class="st1"
   points="55.9,166.8 66.6,166.8 64.4,173.6 45.3,173.6 53.6,147.8 62.1,147.8 "
   id="polygon277" />&#10;			</g>&#10;			<g
   id="g283">&#10;				<path
   class="st1"
   d="m 27.7,163.7 -1,3.1 H 39 l 0.1,0.3 c 0.9,1.8 1.8,3.7 2.8,5.8 l 0.3,0.7 H 16 l 6.6,-20.2 c -1.2,-2.5 -1.9,-4 -2.2,-4.8 l -0.3,-0.7 h 27.5 l -2.2,6.8 H 30.7 l -1,3.1 h 12.6 l -1.9,6 H 27.7 Z"
   id="path281" />&#10;			</g>&#10;		</g>&#10;	</g>&#10;</g></g><g
   inkscape:label="Dwgs.User"
   inkscape:groupmode="layer"
   id="g640"
   transform="translate(-6.2961123,-38.999976)"
   style="display:inline" /><g
   inkscape:label="Drill"
   inkscape:groupmode="layer"
   id="g642"
   transform="translate(-6.29611,-39)"
   style="display:inline" /></svg>
