  0
SECTION
  2
HEADER
  9
$ACADVER
  1
AC1014
  9
$HANDSEED
  5
FFFF
  9
$INSUNITS
 70
     4
  9
$MEASUREMENT
 70
     1
  0
ENDSEC
  0
SECTION
  2
TABLES
  0
TABLE
  2
VPORT
  5
8
330
0
100
AcDbSymbolTable
 70
     4
  0
VPORT
  5
2E
330
8
100
AcDbSymbolTableRecord
100
AcDbViewportTableRecord
  2
*ACTIVE
 70
     0
 10
0.0
 20
0.0
 11
1.0
 21
1.0
 12
210.0
 22
148.5
 13
0.0
 23
0.0
 14
10.0
 24
10.0
 15
10.0
 25
10.0
 16
0.0
 26
0.0
 36
1.0
 17
0.0
 27
0.0
 37
0.0
 40
341.0
 41
1.24
 42
50.0
 43
0.0
 44
0.0
 50
0.0
 51
0.0
 71
     0
 72
   100
 73
     1
 74
     3
 75
     0
 76
     0
 77
     0
 78
     0
  0
ENDTAB
  0
TABLE
  2
LTYPE
  5
5
330
0
100
AcDbSymbolTable
 70
     1
  0
LTYPE
  5
14
330
5
100
AcDbSymbolTableRecord
100
AcDbLinetypeTableRecord
  2
BYBLOCK
 70
     0
  3

 72
    65
 73
     0
 40
0.0
  0
LTYPE
  5
15
330
5
100
AcDbSymbolTableRecord
100
AcDbLinetypeTableRecord
  2
BYLAYER
 70
     0
  3

 72
    65
 73
     0
 40
0.0
  0
LTYPE
  5
16
330
5
100
AcDbSymbolTableRecord
100
AcDbLinetypeTableRecord
  2
CONTINUOUS
 70
     0
  3
Solid line
 72
    65
 73
     0
 40
0.0
  0
ENDTAB
  0
TABLE
  2
LAYER
  5
2
100
AcDbSymbolTable
 70
11
  0
LAYER
  5
50
100
AcDbSymbolTableRecord
100
AcDbLayerTableRecord
  2
0
 70
0
  6
CONTINUOUS
  0
LAYER
  5
51
100
AcDbSymbolTableRecord
100
AcDbLayerTableRecord
  2
[fixed]_BG
 70
0
  6
CONTINUOUS
  0
LAYER
  5
52
100
AcDbSymbolTableRecord
100
AcDbLayerTableRecord
  2
Edge.Cuts
 70
0
  6
CONTINUOUS
  0
LAYER
  5
53
100
AcDbSymbolTableRecord
100
AcDbLayerTableRecord
  2
B.Cu
 70
0
  6
CONTINUOUS
  0
LAYER
  5
54
100
AcDbSymbolTableRecord
100
AcDbLayerTableRecord
  2
B.Mask
 70
0
  6
CONTINUOUS
  0
LAYER
  5
55
100
AcDbSymbolTableRecord
100
AcDbLayerTableRecord
  2
B.SilkS
 70
0
  6
CONTINUOUS
  0
LAYER
  5
56
100
AcDbSymbolTableRecord
100
AcDbLayerTableRecord
  2
F.Cu
 70
0
  6
CONTINUOUS
  0
LAYER
  5
57
100
AcDbSymbolTableRecord
100
AcDbLayerTableRecord
  2
F.Mask
 70
0
  6
CONTINUOUS
  0
LAYER
  5
58
100
AcDbSymbolTableRecord
100
AcDbLayerTableRecord
  2
F.SilkS
 70
0
  6
CONTINUOUS
  0
LAYER
  5
59
100
AcDbSymbolTableRecord
100
AcDbLayerTableRecord
  2
Dwgs.User
 70
0
  6
CONTINUOUS
  0
LAYER
  5
5a
100
AcDbSymbolTableRecord
100
AcDbLayerTableRecord
  2
Drill
 70
0
  6
CONTINUOUS
  0
ENDTAB
  0
TABLE
  2
STYLE
  5
3
330
0
100
AcDbSymbolTable
 70
     1
  0
STYLE
  5
11
330
3
100
AcDbSymbolTableRecord
100
AcDbTextStyleTableRecord
  2
STANDARD
 70
     0
 40
0.0
 41
1.0
 50
0.0
 71
     0
 42
2.5
  3
txt
  4

  0
ENDTAB
  0
TABLE
  2
VIEW
  5
6
330
0
100
AcDbSymbolTable
 70
     0
  0
ENDTAB
  0
TABLE
  2
UCS
  5
7
330
0
100
AcDbSymbolTable
 70
     0
  0
ENDTAB
  0
TABLE
  2
APPID
  5
9
330
0
100
AcDbSymbolTable
 70
     2
  0
APPID
  5
12
330
9
100
AcDbSymbolTableRecord
100
AcDbRegAppTableRecord
  2
ACAD
 70
     0
  0
ENDTAB
  0
TABLE
  2
DIMSTYLE
  5
A
330
0
100
AcDbSymbolTable
 70
     1
  0
DIMSTYLE
105
27
330
A
100
AcDbSymbolTableRecord
100
AcDbDimStyleTableRecord
  2
ISO-25
 70
     0
  3

  4

  5

  6

  7

 40
1.0
 41
2.5
 42
0.625
 43
3.75
 44
1.25
 45
0.0
 46
0.0
 47
0.0
 48
0.0
140
2.5
141
2.5
142
0.0
143
0.03937007874016
144
1.0
145
0.0
146
1.0
147
0.625
 71
     0
 72
     0
 73
     0
 74
     0
 75
     0
 76
     0
 77
     1
 78
     8
170
     0
171
     3
172
     1
173
     0
174
     0
175
     0
176
     0
177
     0
178
     0
270
     2
271
     2
272
     2
273
     2
274
     3
340
11
275
     0
280
     0
281
     0
282
     0
283
     0
284
     8
285
     0
286
     0
287
     3
288
     0
  0
ENDTAB
  0
TABLE
  2
BLOCK_RECORD
  5
1
330
0
100
AcDbSymbolTable
 70
     1
  0
BLOCK_RECORD
  5
1F
330
1
100
AcDbSymbolTableRecord
100
AcDbBlockTableRecord
  2
*MODEL_SPACE
  0
BLOCK_RECORD
  5
1B
330
1
100
AcDbSymbolTableRecord
100
AcDbBlockTableRecord
  2
*PAPER_SPACE
  0
ENDTAB
  0
ENDSEC
  0
SECTION
  2
BLOCKS
  0
BLOCK
  5
20
330
1F
100
AcDbEntity
  8
0
100
AcDbBlockBegin
  2
*MODEL_SPACE
 70
     0
 10
0.0
 20
0.0
 30
0.0
  3
*MODEL_SPACE
  1

  0
ENDBLK
  5
21
330
1F
100
AcDbEntity
  8
0
100
AcDbBlockEnd
  0
BLOCK
  5
1C
330
1B
100
AcDbEntity
 67
     1
  8
0
100
AcDbBlockBegin
  2
*PAPER_SPACE
  1

  0
ENDBLK
  5
1D
330
1B
100
AcDbEntity
 67
     1
  8
0
100
AcDbBlockEnd
  0
ENDSEC
  0
SECTION
  2
ENTITIES
  0
SPLINE
  5
100
100
AcDbEntity
  8
Dwgs.User
 62
7
100
AcDbSpline
 70
8
 71
3
 72
8
 73
4
 74
0
 40
0
 40
0
 40
0
 40
0
 40
1
 40
1
 40
1
 40
1
 10
49.405016
 20
12.628924
 30
0.0
 10
49.300750
 20
12.312793
 30
0.0
 10
49.149398
 20
12.026919
 30
0.0
 10
48.954341
 20
11.774669
 30
0.0
  0
LWPOLYLINE
  5
101
100
AcDbEntity
  8
Dwgs.User
 62
7
100
AcDbPolyline
 90
2
 70
0
 10
49.734632
 20
13.644651
 30
0.0
 10
49.405016
 20
12.628924
 30
0.0
  0
SPLINE
  5
102
100
AcDbEntity
  8
Dwgs.User
 62
7
100
AcDbSpline
 70
8
 71
3
 72
8
 73
4
 74
0
 40
0
 40
0
 40
0
 40
0
 40
1
 40
1
 40
1
 40
1
 10
49.189759
 20
11.054913
 30
0.0
 10
49.472290
 20
10.183822
 30
0.0
 10
49.320931
 20
9.232023
 30
0.0
 10
48.782811
 20
8.488699
 30
0.0
  0
SPLINE
  5
103
100
AcDbEntity
  8
Dwgs.User
 62
7
100
AcDbSpline
 70
8
 71
3
 72
8
 73
4
 74
0
 40
0
 40
0
 40
0
 40
0
 40
1
 40
1
 40
1
 40
1
 10
48.782811
 20
8.488699
 30
0.0
 10
48.244670
 20
7.748747
 30
0.0
 10
47.383658
 20
7.311543
 30
0.0
 10
46.468847
 20
7.311543
 30
0.0
  0
LWPOLYLINE
  5
104
100
AcDbEntity
  8
Dwgs.User
 62
7
100
AcDbPolyline
 90
2
 70
0
 10
48.954341
 20
11.774669
 30
0.0
 10
49.189759
 20
11.054913
 30
0.0
  0
SPLINE
  5
105
100
AcDbEntity
  8
Dwgs.User
 62
7
100
AcDbSpline
 70
8
 71
3
 72
8
 73
4
 74
0
 40
0
 40
0
 40
0
 40
0
 40
1
 40
1
 40
1
 40
1
 10
39.604308
 20
6.480798
 30
0.0
 10
39.506778
 20
6.181457
 30
0.0
 10
39.362158
 20
5.905644
 30
0.0
 10
39.180550
 20
5.660126
 30
0.0
  0
SPLINE
  5
106
100
AcDbEntity
  8
Dwgs.User
 62
7
100
AcDbSpline
 70
8
 71
3
 72
8
 73
4
 74
0
 40
0
 40
0
 40
0
 40
0
 40
1
 40
1
 40
1
 40
1
 10
39.180550
 20
5.660126
 30
0.0
 10
39.496703
 20
4.799139
 30
0.0
 10
39.520228
 20
3.843968
 30
0.0
 10
39.227621
 20
2.939215
 30
0.0
  0
SPLINE
  5
107
100
AcDbEntity
  8
Dwgs.User
 62
7
100
AcDbSpline
 70
8
 71
3
 72
8
 73
4
 74
0
 40
0
 40
0
 40
0
 40
0
 40
1
 40
1
 40
1
 40
1
 10
39.227621
 20
2.939215
 30
0.0
 10
38.665955
 20
1.213831
 30
0.0
 10
37.071748
 20
0.053503
 30
0.0
 10
35.258915
 20
0.053503
 30
0.0
  0
LWPOLYLINE
  5
108
100
AcDbEntity
  8
Dwgs.User
 62
7
100
AcDbPolyline
 90
3
 70
0
 10
46.468847
 20
7.311543
 30
0.0
 10
39.880104
 20
7.331686
 30
0.0
 10
39.604308
 20
6.480798
 30
0.0
  0
SPLINE
  5
109
100
AcDbEntity
  8
Dwgs.User
 62
7
100
AcDbSpline
 70
8
 71
3
 72
8
 73
4
 74
0
 40
0
 40
0
 40
0
 40
0
 40
1
 40
1
 40
1
 40
1
 10
13.969134
 20
0.049987
 30
0.0
 10
12.620441
 20
0.049987
 30
0.0
 10
11.342386
 20
0.699084
 30
0.0
 10
10.548648
 20
1.788796
 30
0.0
  0
SPLINE
  5
10a
100
AcDbEntity
  8
Dwgs.User
 62
7
100
AcDbSpline
 70
8
 71
3
 72
8
 73
4
 74
0
 40
0
 40
0
 40
0
 40
0
 40
1
 40
1
 40
1
 40
1
 10
10.548648
 20
1.788796
 30
0.0
 10
9.758278
 20
2.881872
 30
0.0
 10
9.532921
 20
4.297853
 30
0.0
 10
9.949968
 20
5.579258
 30
0.0
  0
LWPOLYLINE
  5
10b
100
AcDbEntity
  8
Dwgs.User
 62
7
100
AcDbPolyline
 90
2
 70
0
 10
35.258915
 20
0.053503
 30
0.0
 10
13.969134
 20
0.049987
 30
0.0
  0
SPLINE
  5
10c
100
AcDbEntity
  8
Dwgs.User
 62
7
100
AcDbSpline
 70
8
 71
3
 72
8
 73
4
 74
0
 40
0
 40
0
 40
0
 40
0
 40
1
 40
1
 40
1
 40
1
 10
2.910543
 20
7.311374
 30
0.0
 10
1.995732
 20
7.311374
 30
0.0
 10
1.134724
 20
7.748578
 30
0.0
 10
0.596579
 20
8.491902
 30
0.0
  0
SPLINE
  5
10d
100
AcDbEntity
  8
Dwgs.User
 62
7
100
AcDbSpline
 70
8
 71
3
 72
8
 73
4
 74
0
 40
0
 40
0
 40
0
 40
0
 40
1
 40
1
 40
1
 40
1
 10
0.596579
 20
8.491902
 30
0.0
 10
0.058455
 20
9.231854
 30
0.0
 10
-0.092896
 20
10.183657
 30
0.0
 10
0.189631
 20
11.054744
 30
0.0
  0
LWPOLYLINE
  5
10e
100
AcDbEntity
  8
Dwgs.User
 62
7
100
AcDbPolyline
 90
3
 70
0
 10
9.949968
 20
5.579258
 30
0.0
 10
10.511656
 20
7.311374
 30
0.0
 10
2.910543
 20
7.311374
 30
0.0
  0
SPLINE
  5
10f
100
AcDbEntity
  8
Dwgs.User
 62
7
100
AcDbSpline
 70
8
 71
3
 72
8
 73
4
 74
0
 40
0
 40
0
 40
0
 40
0
 40
1
 40
1
 40
1
 40
1
 10
0.976637
 20
13.476479
 30
0.0
 10
0.633592
 20
14.344240
 30
0.0
 10
0.734487
 20
15.329667
 30
0.0
 10
1.252433
 20
16.109980
 30
0.0
  0
SPLINE
  5
110
100
AcDbEntity
  8
Dwgs.User
 62
7
100
AcDbSpline
 70
8
 71
3
 72
8
 73
4
 74
0
 40
0
 40
0
 40
0
 40
0
 40
1
 40
1
 40
1
 40
1
 10
1.252433
 20
16.109980
 30
0.0
 10
1.561853
 20
16.574119
 30
0.0
 10
1.995732
 20
16.927242
 30
0.0
 10
2.490131
 20
17.145864
 30
0.0
  0
SPLINE
  5
111
100
AcDbEntity
  8
Dwgs.User
 62
7
100
AcDbSpline
 70
8
 71
3
 72
8
 73
4
 74
0
 40
0
 40
0
 40
0
 40
0
 40
1
 40
1
 40
1
 40
1
 10
2.490131
 20
17.145864
 30
0.0
 10
1.538328
 20
17.993429
 30
0.0
 10
0.932913
 20
19.224413
 30
0.0
 10
0.932913
 20
20.596631
 30
0.0
  0
SPLINE
  5
112
100
AcDbEntity
  8
Dwgs.User
 62
7
100
AcDbSpline
 70
8
 71
3
 72
8
 73
4
 74
0
 40
0
 40
0
 40
0
 40
0
 40
1
 40
1
 40
1
 40
1
 10
0.932913
 20
20.596631
 30
0.0
 10
0.932913
 20
21.323120
 30
0.0
 10
1.101078
 20
22.009248
 30
0.0
 10
1.400420
 20
22.621353
 30
0.0
  0
SPLINE
  5
113
100
AcDbEntity
  8
Dwgs.User
 62
7
100
AcDbSpline
 70
8
 71
3
 72
8
 73
4
 74
0
 40
0
 40
0
 40
0
 40
0
 40
1
 40
1
 40
1
 40
1
 10
1.400420
 20
22.621353
 30
0.0
 10
0.566326
 20
23.458819
 30
0.0
 10
0.051727
 20
24.612450
 30
0.0
 10
0.051727
 20
25.883795
 30
0.0
  0
SPLINE
  5
114
100
AcDbEntity
  8
Dwgs.User
 62
7
100
AcDbSpline
 70
8
 71
3
 72
8
 73
4
 74
0
 40
0
 40
0
 40
0
 40
0
 40
1
 40
1
 40
1
 40
1
 10
0.051727
 20
25.883795
 30
0.0
 10
0.051727
 20
27.155097
 30
0.0
 10
0.566326
 20
28.308711
 30
0.0
 10
1.400420
 20
29.146173
 30
0.0
  0
SPLINE
  5
115
100
AcDbEntity
  8
Dwgs.User
 62
7
100
AcDbSpline
 70
8
 71
3
 72
8
 73
4
 74
0
 40
0
 40
0
 40
0
 40
0
 40
1
 40
1
 40
1
 40
1
 10
1.400420
 20
29.146173
 30
0.0
 10
1.101078
 20
29.758299
 30
0.0
 10
0.932913
 20
30.444427
 30
0.0
 10
0.932913
 20
31.170895
 30
0.0
  0
SPLINE
  5
116
100
AcDbEntity
  8
Dwgs.User
 62
7
100
AcDbSpline
 70
8
 71
3
 72
8
 73
4
 74
0
 40
0
 40
0
 40
0
 40
0
 40
1
 40
1
 40
1
 40
1
 10
0.932913
 20
31.170895
 30
0.0
 10
0.932913
 20
33.720294
 30
0.0
 10
3.004727
 20
35.795454
 30
0.0
 10
5.554126
 20
35.795454
 30
0.0
  0
SPLINE
  5
117
100
AcDbEntity
  8
Dwgs.User
 62
7
100
AcDbSpline
 70
8
 71
3
 72
8
 73
4
 74
0
 40
0
 40
0
 40
0
 40
0
 40
1
 40
1
 40
1
 40
1
 10
5.554126
 20
35.795454
 30
0.0
 10
6.791825
 20
35.795454
 30
0.0
 10
7.915161
 20
35.314501
 30
0.0
 10
8.745908
 20
34.524131
 30
0.0
  0
SPLINE
  5
118
100
AcDbEntity
  8
Dwgs.User
 62
7
100
AcDbSpline
 70
8
 71
3
 72
8
 73
4
 74
0
 40
0
 40
0
 40
0
 40
0
 40
1
 40
1
 40
1
 40
1
 10
8.745908
 20
34.524131
 30
0.0
 10
8.762719
 20
34.554388
 30
0.0
 10
8.779533
 20
34.584670
 30
0.0
 10
8.796347
 20
34.614927
 30
0.0
  0
SPLINE
  5
119
100
AcDbEntity
  8
Dwgs.User
 62
7
100
AcDbSpline
 70
8
 71
3
 72
8
 73
4
 74
0
 40
0
 40
0
 40
0
 40
0
 40
1
 40
1
 40
1
 40
1
 10
8.796347
 20
34.614927
 30
0.0
 10
8.254859
 20
36.572378
 30
0.0
 10
7.982431
 20
38.607178
 30
0.0
 10
7.982431
 20
40.689074
 30
0.0
  0
SPLINE
  5
11a
100
AcDbEntity
  8
Dwgs.User
 62
7
100
AcDbSpline
 70
8
 71
3
 72
8
 73
4
 74
0
 40
0
 40
0
 40
0
 40
0
 40
1
 40
1
 40
1
 40
1
 10
7.982431
 20
40.689074
 30
0.0
 10
7.982431
 20
41.906595
 30
0.0
 10
8.076615
 20
43.127479
 30
0.0
 10
8.268305
 20
44.318107
 30
0.0
  0
SPLINE
  5
11b
100
AcDbEntity
  8
Dwgs.User
 62
7
100
AcDbSpline
 70
8
 71
3
 72
8
 73
4
 74
0
 40
0
 40
0
 40
0
 40
0
 40
1
 40
1
 40
1
 40
1
 10
8.268305
 20
44.318107
 30
0.0
 10
8.594557
 20
46.393267
 30
0.0
 10
10.363665
 20
47.896658
 30
0.0
 10
12.469104
 20
47.896658
 30
0.0
  0
SPLINE
  5
11c
100
AcDbEntity
  8
Dwgs.User
 62
7
100
AcDbSpline
 70
8
 71
3
 72
8
 73
4
 74
0
 40
0
 40
0
 40
0
 40
0
 40
1
 40
1
 40
1
 40
1
 10
12.469104
 20
47.896658
 30
0.0
 10
12.825612
 20
47.896658
 30
0.0
 10
13.182125
 20
47.852955
 30
0.0
 10
13.528534
 20
47.765503
 30
0.0
  0
SPLINE
  5
11d
100
AcDbEntity
  8
Dwgs.User
 62
7
100
AcDbSpline
 70
8
 71
3
 72
8
 73
4
 74
0
 40
0
 40
0
 40
0
 40
0
 40
1
 40
1
 40
1
 40
1
 10
13.528534
 20
47.765503
 30
0.0
 10
16.420999
 20
47.025568
 30
0.0
 10
19.041012
 20
45.232918
 30
0.0
 10
21.190178
 20
42.538896
 30
0.0
  0
SPLINE
  5
11e
100
AcDbEntity
  8
Dwgs.User
 62
7
100
AcDbSpline
 70
8
 71
3
 72
8
 73
4
 74
0
 40
0
 40
0
 40
0
 40
0
 40
1
 40
1
 40
1
 40
1
 10
21.190178
 20
42.538896
 30
0.0
 10
22.417777
 20
42.740707
 30
0.0
 10
23.672307
 20
42.844969
 30
0.0
 10
24.943630
 20
42.844969
 30
0.0
  0
SPLINE
  5
11f
100
AcDbEntity
  8
Dwgs.User
 62
7
100
AcDbSpline
 70
8
 71
3
 72
8
 73
4
 74
0
 40
0
 40
0
 40
0
 40
0
 40
1
 40
1
 40
1
 40
1
 10
24.943630
 20
42.844969
 30
0.0
 10
26.188061
 20
42.844969
 30
0.0
 10
27.419024
 20
42.747421
 30
0.0
 10
28.623098
 20
42.548995
 30
0.0
  0
SPLINE
  5
120
100
AcDbEntity
  8
Dwgs.User
 62
7
100
AcDbSpline
 70
8
 71
3
 72
8
 73
4
 74
0
 40
0
 40
0
 40
0
 40
0
 40
1
 40
1
 40
1
 40
1
 10
28.623098
 20
42.548995
 30
0.0
 10
30.799153
 20
45.266560
 30
0.0
 10
33.452815
 20
47.065925
 30
0.0
 10
36.385637
 20
47.785681
 30
0.0
  0
SPLINE
  5
121
100
AcDbEntity
  8
Dwgs.User
 62
7
100
AcDbSpline
 70
8
 71
3
 72
8
 73
4
 74
0
 40
0
 40
0
 40
0
 40
0
 40
1
 40
1
 40
1
 40
1
 10
36.385637
 20
47.785681
 30
0.0
 10
36.721967
 20
47.869766
 30
0.0
 10
37.068376
 20
47.913490
 30
0.0
 10
37.411442
 20
47.913490
 30
0.0
  0
SPLINE
  5
122
100
AcDbEntity
  8
Dwgs.User
 62
7
100
AcDbSpline
 70
8
 71
3
 72
8
 73
4
 74
0
 40
0
 40
0
 40
0
 40
0
 40
1
 40
1
 40
1
 40
1
 10
37.411442
 20
47.913490
 30
0.0
 10
39.516881
 20
47.913490
 30
0.0
 10
41.285968
 20
46.406710
 30
0.0
 10
41.615587
 20
44.334917
 30
0.0
  0
SPLINE
  5
123
100
AcDbEntity
  8
Dwgs.User
 62
7
100
AcDbSpline
 70
8
 71
3
 72
8
 73
4
 74
0
 40
0
 40
0
 40
0
 40
0
 40
1
 40
1
 40
1
 40
1
 10
41.615587
 20
44.334917
 30
0.0
 10
41.807299
 20
43.140943
 30
0.0
 10
41.904826
 20
41.913327
 30
0.0
 10
41.904826
 20
40.689074
 30
0.0
  0
SPLINE
  5
124
100
AcDbEntity
  8
Dwgs.User
 62
7
100
AcDbSpline
 70
8
 71
3
 72
8
 73
4
 74
0
 40
0
 40
0
 40
0
 40
0
 40
1
 40
1
 40
1
 40
1
 10
41.904826
 20
40.689074
 30
0.0
 10
41.904826
 20
38.607182
 30
0.0
 10
41.632398
 20
36.572382
 30
0.0
 10
41.090910
 20
34.614927
 30
0.0
  0
SPLINE
  5
125
100
AcDbEntity
  8
Dwgs.User
 62
7
100
AcDbSpline
 70
8
 71
3
 72
8
 73
4
 74
0
 40
0
 40
0
 40
0
 40
0
 40
1
 40
1
 40
1
 40
1
 10
41.090910
 20
34.614927
 30
0.0
 10
41.107713
 20
34.584670
 30
0.0
 10
41.124552
 20
34.554388
 30
0.0
 10
41.141345
 20
34.524131
 30
0.0
  0
SPLINE
  5
126
100
AcDbEntity
  8
Dwgs.User
 62
7
100
AcDbSpline
 70
8
 71
3
 72
8
 73
4
 74
0
 40
0
 40
0
 40
0
 40
0
 40
1
 40
1
 40
1
 40
1
 10
41.141345
 20
34.524131
 30
0.0
 10
41.968728
 20
35.314501
 30
0.0
 10
43.095432
 20
35.795454
 30
0.0
 10
44.333148
 20
35.795454
 30
0.0
  0
SPLINE
  5
127
100
AcDbEntity
  8
Dwgs.User
 62
7
100
AcDbSpline
 70
8
 71
3
 72
8
 73
4
 74
0
 40
0
 40
0
 40
0
 40
0
 40
1
 40
1
 40
1
 40
1
 10
44.333148
 20
35.795454
 30
0.0
 10
46.879162
 20
35.795454
 30
0.0
 10
48.954341
 20
33.720294
 30
0.0
 10
48.954341
 20
31.170895
 30
0.0
  0
SPLINE
  5
128
100
AcDbEntity
  8
Dwgs.User
 62
7
100
AcDbSpline
 70
8
 71
3
 72
8
 73
4
 74
0
 40
0
 40
0
 40
0
 40
0
 40
1
 40
1
 40
1
 40
1
 10
48.954341
 20
31.170895
 30
0.0
 10
48.954341
 20
30.444427
 30
0.0
 10
48.786179
 20
29.758299
 30
0.0
 10
48.486837
 20
29.146173
 30
0.0
  0
SPLINE
  5
129
100
AcDbEntity
  8
Dwgs.User
 62
7
100
AcDbSpline
 70
8
 71
3
 72
8
 73
4
 74
0
 40
0
 40
0
 40
0
 40
0
 40
1
 40
1
 40
1
 40
1
 10
48.486837
 20
29.146173
 30
0.0
 10
49.320931
 20
28.308711
 30
0.0
 10
49.835530
 20
27.155097
 30
0.0
 10
49.835530
 20
25.883795
 30
0.0
  0
SPLINE
  5
12a
100
AcDbEntity
  8
Dwgs.User
 62
7
100
AcDbSpline
 70
8
 71
3
 72
8
 73
4
 74
0
 40
0
 40
0
 40
0
 40
0
 40
1
 40
1
 40
1
 40
1
 10
49.835530
 20
25.883795
 30
0.0
 10
49.835530
 20
24.612450
 30
0.0
 10
49.320931
 20
23.458819
 30
0.0
 10
48.486837
 20
22.621353
 30
0.0
  0
SPLINE
  5
12b
100
AcDbEntity
  8
Dwgs.User
 62
7
100
AcDbSpline
 70
8
 71
3
 72
8
 73
4
 74
0
 40
0
 40
0
 40
0
 40
0
 40
1
 40
1
 40
1
 40
1
 10
48.486837
 20
22.621353
 30
0.0
 10
48.786179
 20
22.009248
 30
0.0
 10
48.954341
 20
21.323120
 30
0.0
 10
48.954341
 20
20.596631
 30
0.0
  0
SPLINE
  5
12c
100
AcDbEntity
  8
Dwgs.User
 62
7
100
AcDbSpline
 70
8
 71
3
 72
8
 73
4
 74
0
 40
0
 40
0
 40
0
 40
0
 40
1
 40
1
 40
1
 40
1
 10
48.954341
 20
20.596631
 30
0.0
 10
48.954341
 20
19.318594
 30
0.0
 10
48.433010
 20
18.161594
 30
0.0
 10
47.595548
 20
17.327500
 30
0.0
  0
SPLINE
  5
12d
100
AcDbEntity
  8
Dwgs.User
 62
7
100
AcDbSpline
 70
8
 71
3
 72
8
 73
4
 74
0
 40
0
 40
0
 40
0
 40
0
 40
1
 40
1
 40
1
 40
1
 10
47.595548
 20
17.327500
 30
0.0
 10
48.285047
 20
17.182860
 30
0.0
 10
48.907249
 20
16.792744
 30
0.0
 10
49.327667
 20
16.210896
 30
0.0
  0
SPLINE
  5
12e
100
AcDbEntity
  8
Dwgs.User
 62
7
100
AcDbSpline
 70
8
 71
3
 72
8
 73
4
 74
0
 40
0
 40
0
 40
0
 40
0
 40
1
 40
1
 40
1
 40
1
 10
49.327667
 20
16.210896
 30
0.0
 10
49.865787
 20
15.470947
 30
0.0
 10
50.017138
 20
14.515780
 30
0.0
 10
49.734632
 20
13.644651
 30
0.0
  0
LWPOLYLINE
  5
12f
100
AcDbEntity
  8
Dwgs.User
 62
7
100
AcDbPolyline
 90
2
 70
0
 10
0.189631
 20
11.054744
 30
0.0
 10
0.976637
 20
13.476479
 30
0.0
  0
LWPOLYLINE
  5
130
100
AcDbEntity
  8
Dwgs.User
 62
7
100
AcDbPolyline
 90
1
 70
1
 10
49.734632
 20
13.644651
 30
0.0
  0
ENDSEC
  0
SECTION
  2
OBJECTS
  0
DICTIONARY
  5
C
330
0
100
AcDbDictionary
  3
ACAD_GROUP
350
D
  3
ACAD_MLINESTYLE
350
17
  0
DICTIONARY
  5
D
330
C
100
AcDbDictionary
  0
DICTIONARY
  5
1A
330
C
100
AcDbDictionary
  0
DICTIONARY
  5
17
330
C
100
AcDbDictionary
  3
STANDARD
350
18
  0
DICTIONARY
  5
19
330
C
100
AcDbDictionary
  0
ENDSEC
  0
EOF
